solid Visualization Toolkit generated SLA File
 facet normal -0 -0 -1
  outer loop
   vertex 34.730499267578125 93.77520751953125 -40
   vertex 43.37139892578125 90.067092895507812 -40
   vertex 43.37139892578125 72.28570556640625 -40
  endloop
 endfacet
 facet normal 0 0 -1
  outer loop
   vertex 97.9530029296875 20.129898071289062 -40
   vertex 98.822006225585938 14.457099914550781 -40
   vertex 72.28570556640625 14.457099914550781 -40
  endloop
 endfacet
 facet normal 0 0 -1
  outer loop
   vertex -68.896690368652344 -72.479278564453125 -40
   vertex -69.0806884765625 -72.28570556640625 -40
   vertex -43.371429443359375 -72.28570556640625 -40
  endloop
 endfacet
 facet normal 0 0 -1
  outer loop
   vertex -95.413925170898438 -29.936309814453125 -40
   vertex -97.952995300292969 -20.129852294921875 -40
   vertex -72.28570556640625 -14.457138061523438 -40
  endloop
 endfacet
 facet normal 0 0 -1
  outer loop
   vertex -72.28570556640625 -14.457138061523438 -40
   vertex -97.952995300292969 -20.129852294921875 -40
   vertex -98.822021484375 -14.457138061523438 -40
  endloop
 endfacet
 facet normal 0 0 -1
  outer loop
   vertex -72.28570556640625 -14.457138061523438 -40
   vertex -98.822021484375 -14.457138061523438 -40
   vertex -99.486930847167969 -10.116828918457031 -40
  endloop
 endfacet
 facet normal 0 0 -1
  outer loop
   vertex -95.413925170898438 -29.936309814453125 -40
   vertex -72.28570556640625 -14.457138061523438 -40
   vertex -91.895782470703125 -39.435588836669922 -40
  endloop
 endfacet
 facet normal 0 -0 -1
  outer loop
   vertex -91.895782470703125 -39.435588836669922 -40
   vertex -72.28570556640625 -14.457138061523438 -40
   vertex -72.28570556640625 -43.371429443359375 -40
  endloop
 endfacet
 facet normal 0 0 -1
  outer loop
   vertex -91.895782470703125 -39.435588836669922 -40
   vertex -72.28570556640625 -43.371429443359375 -40
   vertex -89.965164184570312 -43.371429443359375 -40
  endloop
 endfacet
 facet normal 0 0 -1
  outer loop
   vertex -72.28570556640625 -43.371429443359375 -40
   vertex -72.28570556640625 -68.914031982421875 -40
   vertex -75.875808715820312 -65.137252807617188 -40
  endloop
 endfacet
 facet normal 0 0 -1
  outer loop
   vertex -75.875808715820312 -65.137252807617188 -40
   vertex -82.076339721679688 -57.126819610595703 -40
   vertex -72.28570556640625 -43.371429443359375 -40
  endloop
 endfacet
 facet normal 0 0 -1
  outer loop
   vertex -72.28570556640625 -43.371429443359375 -40
   vertex -82.076339721679688 -57.126819610595703 -40
   vertex -87.434669494628906 -48.530200958251953 -40
  endloop
 endfacet
 facet normal 0 0 -1
  outer loop
   vertex -72.28570556640625 -43.371429443359375 -40
   vertex -87.434669494628906 -48.530200958251953 -40
   vertex -89.965164184570312 -43.371429443359375 -40
  endloop
 endfacet
 facet normal 0 0 -1
  outer loop
   vertex -43.371429443359375 -72.28570556640625 -40
   vertex -69.0806884765625 -72.28570556640625 -40
   vertex -43.371429443359375 -43.371429443359375 -40
  endloop
 endfacet
 facet normal 0 0 -1
  outer loop
   vertex -34.73052978515625 -93.775215148925781 -40
   vertex -43.371429443359375 -90.067108154296875 -40
   vertex -43.371429443359375 -72.28570556640625 -40
  endloop
 endfacet
 facet normal 0 0 -1
  outer loop
   vertex -43.371429443359375 -72.28570556640625 -40
   vertex -43.371429443359375 -90.067108154296875 -40
   vertex -44.039421081542969 -89.78045654296875 -40
  endloop
 endfacet
 facet normal 0 0 -1
  outer loop
   vertex -44.039421081542969 -89.78045654296875 -40
   vertex -52.896400451660156 -84.864418029785156 -40
   vertex -43.371429443359375 -72.28570556640625 -40
  endloop
 endfacet
 facet normal 0 0 -1
  outer loop
   vertex -43.371429443359375 -72.28570556640625 -40
   vertex -52.896400451660156 -84.864418029785156 -40
   vertex -61.210601806640625 -79.077568054199219 -40
  endloop
 endfacet
 facet normal 0 0 -1
  outer loop
   vertex -43.371429443359375 -72.28570556640625 -40
   vertex -61.210601806640625 -79.077568054199219 -40
   vertex -68.896690368652344 -72.479278564453125 -40
  endloop
 endfacet
 facet normal 0 0 -1
  outer loop
   vertex -14.457138061523438 -72.28570556640625 -40
   vertex -15.142776489257812 -98.846832275390625 -40
   vertex -25.06524658203125 -96.807716369628906 -40
  endloop
 endfacet
 facet normal 0 0 -1
  outer loop
   vertex 5.0649032592773438 -99.871650695800781 -40
   vertex -5.0649185180664062 -99.871650695800781 -40
   vertex -14.457138061523438 -72.28570556640625 -40
  endloop
 endfacet
 facet normal 0 0 -1
  outer loop
   vertex -14.457138061523438 -72.28570556640625 -40
   vertex -5.0649185180664062 -99.871650695800781 -40
   vertex -14.457138061523438 -98.916557312011719 -40
  endloop
 endfacet
 facet normal 0 0 -1
  outer loop
   vertex -14.457138061523438 -72.28570556640625 -40
   vertex -14.457138061523438 -98.916557312011719 -40
   vertex -15.142776489257812 -98.846832275390625 -40
  endloop
 endfacet
 facet normal 0 0 -1
  outer loop
   vertex 34.730499267578125 -93.775215148925781 -40
   vertex 25.065299987792969 -96.807716369628906 -40
   vertex 14.457099914550781 -72.28570556640625 -40
  endloop
 endfacet
 facet normal -0 0 -1
  outer loop
   vertex 14.457099914550781 -72.28570556640625 -40
   vertex 25.065299987792969 -96.807716369628906 -40
   vertex 15.142799377441406 -98.846832275390625 -40
  endloop
 endfacet
 facet normal -0 0 -1
  outer loop
   vertex 14.457099914550781 -72.28570556640625 -40
   vertex 15.142799377441406 -98.846832275390625 -40
   vertex 14.457099914550781 -98.916557312011719 -40
  endloop
 endfacet
 facet normal 0 0 -1
  outer loop
   vertex 68.896697998046875 -72.479278564453125 -40
   vertex 61.210601806640625 -79.077568054199219 -40
   vertex 43.37139892578125 -72.28570556640625 -40
  endloop
 endfacet
 facet normal 0 0 -1
  outer loop
   vertex 61.210601806640625 -79.077568054199219 -40
   vertex 52.896392822265625 -84.864418029785156 -40
   vertex 43.37139892578125 -72.28570556640625 -40
  endloop
 endfacet
 facet normal -0 0 -1
  outer loop
   vertex 43.37139892578125 -72.28570556640625 -40
   vertex 52.896392822265625 -84.864418029785156 -40
   vertex 44.039398193359375 -89.78045654296875 -40
  endloop
 endfacet
 facet normal -0 0 -1
  outer loop
   vertex 43.37139892578125 -72.28570556640625 -40
   vertex 44.039398193359375 -89.78045654296875 -40
   vertex 43.37139892578125 -90.067108154296875 -40
  endloop
 endfacet
 facet normal -0 0 -1
  outer loop
   vertex 43.37139892578125 -43.371429443359375 -40
   vertex 72.28570556640625 -68.914031982421875 -40
   vertex 43.37139892578125 -72.28570556640625 -40
  endloop
 endfacet
 facet normal 0 0 -1
  outer loop
   vertex 43.37139892578125 -72.28570556640625 -40
   vertex 72.28570556640625 -68.914031982421875 -40
   vertex 69.080703735351562 -72.28570556640625 -40
  endloop
 endfacet
 facet normal -0 0 -1
  outer loop
   vertex 43.37139892578125 -72.28570556640625 -40
   vertex 69.080703735351562 -72.28570556640625 -40
   vertex 68.896697998046875 -72.479278564453125 -40
  endloop
 endfacet
 facet normal 0 0 -1
  outer loop
   vertex 75.87579345703125 -65.137252807617188 -40
   vertex 72.28570556640625 -43.371429443359375 -40
   vertex 82.0762939453125 -57.126819610595703 -40
  endloop
 endfacet
 facet normal 0 0 -1
  outer loop
   vertex 82.0762939453125 -57.126819610595703 -40
   vertex 72.28570556640625 -43.371429443359375 -40
   vertex 87.4346923828125 -48.530200958251953 -40
  endloop
 endfacet
 facet normal -0 0 -1
  outer loop
   vertex 72.28570556640625 -14.457138061523438 -40
   vertex 98.822006225585938 -14.457138061523438 -40
   vertex 97.9530029296875 -20.129852294921875 -40
  endloop
 endfacet
 facet normal 0 0 -1
  outer loop
   vertex 97.9530029296875 -20.129852294921875 -40
   vertex 95.413894653320312 -29.936309814453125 -40
   vertex 72.28570556640625 -14.457138061523438 -40
  endloop
 endfacet
 facet normal -0 0 -1
  outer loop
   vertex 72.28570556640625 -14.457138061523438 -40
   vertex 95.413894653320312 -29.936309814453125 -40
   vertex 91.895797729492188 -39.435588836669922 -40
  endloop
 endfacet
 facet normal -0 0 -1
  outer loop
   vertex 72.28570556640625 -14.457138061523438 -40
   vertex 91.895797729492188 -39.435588836669922 -40
   vertex 72.28570556640625 -43.371429443359375 -40
  endloop
 endfacet
 facet normal 0 0 -1
  outer loop
   vertex 72.28570556640625 -43.371429443359375 -40
   vertex 91.895797729492188 -39.435588836669922 -40
   vertex 89.965194702148438 -43.371429443359375 -40
  endloop
 endfacet
 facet normal -0 0 -1
  outer loop
   vertex 72.28570556640625 -43.371429443359375 -40
   vertex 89.965194702148438 -43.371429443359375 -40
   vertex 87.4346923828125 -48.530200958251953 -40
  endloop
 endfacet
 facet normal 0 0 -1
  outer loop
   vertex 98.822006225585938 14.457099914550781 -40
   vertex 99.486892700195312 10.116798400878906 -40
   vertex 72.28570556640625 14.457099914550781 -40
  endloop
 endfacet
 facet normal -0 -0 -1
  outer loop
   vertex 72.28570556640625 14.457099914550781 -40
   vertex 99.486892700195312 10.116798400878906 -40
   vertex 100 0 -40
  endloop
 endfacet
 facet normal -0 0 -1
  outer loop
   vertex 72.28570556640625 14.457099914550781 -40
   vertex 100 0 -40
   vertex 72.28570556640625 -14.457138061523438 -40
  endloop
 endfacet
 facet normal 0 0 -1
  outer loop
   vertex 72.28570556640625 -14.457138061523438 -40
   vertex 100 0 -40
   vertex 99.486892700195312 -10.116828918457031 -40
  endloop
 endfacet
 facet normal 0 0 -1
  outer loop
   vertex 72.28570556640625 -14.457138061523438 -40
   vertex 99.486892700195312 -10.116828918457031 -40
   vertex 98.822006225585938 -14.457138061523438 -40
  endloop
 endfacet
 facet normal -0 -0 -1
  outer loop
   vertex 72.28570556640625 43.37139892578125 -40
   vertex 89.965194702148438 43.37139892578125 -40
   vertex 91.895797729492188 39.435592651367188 -40
  endloop
 endfacet
 facet normal -0 0 -1
  outer loop
   vertex 72.28570556640625 43.37139892578125 -40
   vertex 91.895797729492188 39.435592651367188 -40
   vertex 72.28570556640625 14.457099914550781 -40
  endloop
 endfacet
 facet normal 0 -0 -1
  outer loop
   vertex 72.28570556640625 14.457099914550781 -40
   vertex 91.895797729492188 39.435592651367188 -40
   vertex 95.413894653320312 29.936294555664062 -40
  endloop
 endfacet
 facet normal 0 -0 -1
  outer loop
   vertex 72.28570556640625 14.457099914550781 -40
   vertex 95.413894653320312 29.936294555664062 -40
   vertex 97.9530029296875 20.129898071289062 -40
  endloop
 endfacet
 facet normal 0 0 -1
  outer loop
   vertex 72.28570556640625 43.37139892578125 -40
   vertex 72.28570556640625 68.91400146484375 -40
   vertex 75.87579345703125 65.13720703125 -40
  endloop
 endfacet
 facet normal -0 0 -1
  outer loop
   vertex 75.87579345703125 65.13720703125 -40
   vertex 82.0762939453125 57.126800537109375 -40
   vertex 72.28570556640625 43.37139892578125 -40
  endloop
 endfacet
 facet normal 0 -0 -1
  outer loop
   vertex 72.28570556640625 43.37139892578125 -40
   vertex 82.0762939453125 57.126800537109375 -40
   vertex 87.4346923828125 48.530197143554688 -40
  endloop
 endfacet
 facet normal 0 -0 -1
  outer loop
   vertex 72.28570556640625 43.37139892578125 -40
   vertex 87.4346923828125 48.530197143554688 -40
   vertex 89.965194702148438 43.37139892578125 -40
  endloop
 endfacet
 facet normal -0 0 -1
  outer loop
   vertex 43.37139892578125 90.067092895507812 -40
   vertex 44.039398193359375 89.780502319335938 -40
   vertex 43.37139892578125 72.28570556640625 -40
  endloop
 endfacet
 facet normal 0 -0 -1
  outer loop
   vertex 43.37139892578125 72.28570556640625 -40
   vertex 44.039398193359375 89.780502319335938 -40
   vertex 52.896392822265625 84.864395141601562 -40
  endloop
 endfacet
 facet normal 0 -0 -1
  outer loop
   vertex 43.37139892578125 72.28570556640625 -40
   vertex 52.896392822265625 84.864395141601562 -40
   vertex 61.210601806640625 79.077606201171875 -40
  endloop
 endfacet
 facet normal -0 0 -1
  outer loop
   vertex 61.210601806640625 79.077606201171875 -40
   vertex 68.896697998046875 72.479293823242188 -40
   vertex 43.37139892578125 72.28570556640625 -40
  endloop
 endfacet
 facet normal 0 -0 -1
  outer loop
   vertex 43.37139892578125 72.28570556640625 -40
   vertex 68.896697998046875 72.479293823242188 -40
   vertex 69.080703735351562 72.28570556640625 -40
  endloop
 endfacet
 facet normal -0 0 -1
  outer loop
   vertex 43.37139892578125 72.28570556640625 -40
   vertex 69.080703735351562 72.28570556640625 -40
   vertex 43.37139892578125 43.37139892578125 -40
  endloop
 endfacet
 facet normal -0 0 -1
  outer loop
   vertex 15.142799377441406 98.8468017578125 -40
   vertex 25.065299987792969 96.807693481445312 -40
   vertex 14.457099914550781 72.28570556640625 -40
  endloop
 endfacet
 facet normal -0 -0 -1
  outer loop
   vertex -5.0649185180664062 99.871597290039062 -40
   vertex 5.0649032592773438 99.871597290039062 -40
   vertex 14.457099914550781 72.28570556640625 -40
  endloop
 endfacet
 facet normal 0 0 -1
  outer loop
   vertex 14.457099914550781 72.28570556640625 -40
   vertex 5.0649032592773438 99.871597290039062 -40
   vertex 14.457099914550781 98.916595458984375 -40
  endloop
 endfacet
 facet normal 0 0 -1
  outer loop
   vertex 14.457099914550781 72.28570556640625 -40
   vertex 14.457099914550781 98.916595458984375 -40
   vertex 15.142799377441406 98.8468017578125 -40
  endloop
 endfacet
 facet normal 0 -0 -1
  outer loop
   vertex -43.371429443359375 90.067092895507812 -40
   vertex -34.73052978515625 93.77520751953125 -40
   vertex -14.457138061523438 72.28570556640625 -40
  endloop
 endfacet
 facet normal 0 -0 -1
  outer loop
   vertex -34.73052978515625 93.77520751953125 -40
   vertex -25.06524658203125 96.807693481445312 -40
   vertex -14.457138061523438 72.28570556640625 -40
  endloop
 endfacet
 facet normal 0 0 -1
  outer loop
   vertex -14.457138061523438 72.28570556640625 -40
   vertex -25.06524658203125 96.807693481445312 -40
   vertex -15.142776489257812 98.8468017578125 -40
  endloop
 endfacet
 facet normal 0 0 -1
  outer loop
   vertex -14.457138061523438 72.28570556640625 -40
   vertex -15.142776489257812 98.8468017578125 -40
   vertex -14.457138061523438 98.916595458984375 -40
  endloop
 endfacet
 facet normal 0 -0 -1
  outer loop
   vertex -68.896690368652344 72.479293823242188 -40
   vertex -61.210601806640625 79.077606201171875 -40
   vertex -43.371429443359375 72.28570556640625 -40
  endloop
 endfacet
 facet normal 0 0 -1
  outer loop
   vertex -43.371429443359375 72.28570556640625 -40
   vertex -61.210601806640625 79.077606201171875 -40
   vertex -52.896400451660156 84.864395141601562 -40
  endloop
 endfacet
 facet normal 0 0 -1
  outer loop
   vertex -43.371429443359375 72.28570556640625 -40
   vertex -52.896400451660156 84.864395141601562 -40
   vertex -44.039421081542969 89.780502319335938 -40
  endloop
 endfacet
 facet normal 0 0 -1
  outer loop
   vertex -43.371429443359375 43.37139892578125 -40
   vertex -72.28570556640625 68.91400146484375 -40
   vertex -43.371429443359375 72.28570556640625 -40
  endloop
 endfacet
 facet normal 0 0 -1
  outer loop
   vertex -43.371429443359375 72.28570556640625 -40
   vertex -72.28570556640625 68.91400146484375 -40
   vertex -69.0806884765625 72.28570556640625 -40
  endloop
 endfacet
 facet normal 0 0 -1
  outer loop
   vertex -43.371429443359375 72.28570556640625 -40
   vertex -69.0806884765625 72.28570556640625 -40
   vertex -68.896690368652344 72.479293823242188 -40
  endloop
 endfacet
 facet normal 0 0 -1
  outer loop
   vertex -75.875808715820312 65.13720703125 -40
   vertex -72.28570556640625 43.37139892578125 -40
   vertex -82.076339721679688 57.126800537109375 -40
  endloop
 endfacet
 facet normal 0 0 -1
  outer loop
   vertex -82.076339721679688 57.126800537109375 -40
   vertex -72.28570556640625 43.37139892578125 -40
   vertex -87.434669494628906 48.530197143554688 -40
  endloop
 endfacet
 facet normal 0 0 -1
  outer loop
   vertex -99.486930847167969 -10.116828918457031 -40
   vertex -100 0 -40
   vertex -72.28570556640625 -14.457138061523438 -40
  endloop
 endfacet
 facet normal 0 0 -1
  outer loop
   vertex -72.28570556640625 -14.457138061523438 -40
   vertex -100 0 -40
   vertex -99.486930847167969 10.116798400878906 -40
  endloop
 endfacet
 facet normal 0 0 -1
  outer loop
   vertex -72.28570556640625 -14.457138061523438 -40
   vertex -99.486930847167969 10.116798400878906 -40
   vertex -72.28570556640625 14.457099914550781 -40
  endloop
 endfacet
 facet normal 0 0 -1
  outer loop
   vertex -72.28570556640625 14.457099914550781 -40
   vertex -99.486930847167969 10.116798400878906 -40
   vertex -98.822021484375 14.457099914550781 -40
  endloop
 endfacet
 facet normal 0 0 -1
  outer loop
   vertex -72.28570556640625 14.457099914550781 -40
   vertex -98.822021484375 14.457099914550781 -40
   vertex -97.952995300292969 20.129898071289062 -40
  endloop
 endfacet
 facet normal 0 -0 -1
  outer loop
   vertex -97.952995300292969 20.129898071289062 -40
   vertex -95.413925170898438 29.936294555664062 -40
   vertex -72.28570556640625 14.457099914550781 -40
  endloop
 endfacet
 facet normal 0 0 -1
  outer loop
   vertex -72.28570556640625 14.457099914550781 -40
   vertex -95.413925170898438 29.936294555664062 -40
   vertex -91.895782470703125 39.435592651367188 -40
  endloop
 endfacet
 facet normal 0 0 -1
  outer loop
   vertex -72.28570556640625 14.457099914550781 -40
   vertex -91.895782470703125 39.435592651367188 -40
   vertex -72.28570556640625 43.37139892578125 -40
  endloop
 endfacet
 facet normal 0 0 -1
  outer loop
   vertex -72.28570556640625 43.37139892578125 -40
   vertex -91.895782470703125 39.435592651367188 -40
   vertex -89.965164184570312 43.37139892578125 -40
  endloop
 endfacet
 facet normal 0 0 -1
  outer loop
   vertex -72.28570556640625 43.37139892578125 -40
   vertex -89.965164184570312 43.37139892578125 -40
   vertex -87.434669494628906 48.530197143554688 -40
  endloop
 endfacet
 facet normal 0 -0 -1
  outer loop
   vertex -75.875808715820312 65.13720703125 -40
   vertex -72.28570556640625 68.91400146484375 -40
   vertex -72.28570556640625 43.37139892578125 -40
  endloop
 endfacet
 facet normal 0 0 -1
  outer loop
   vertex -72.28570556640625 43.37139892578125 -40
   vertex -72.28570556640625 68.91400146484375 -40
   vertex -43.371429443359375 43.37139892578125 -40
  endloop
 endfacet
 facet normal -0 0 -1
  outer loop
   vertex -72.28570556640625 43.37139892578125 -40
   vertex -43.371429443359375 43.37139892578125 -40
   vertex -72.28570556640625 14.457099914550781 -40
  endloop
 endfacet
 facet normal 0 -0 -1
  outer loop
   vertex -72.28570556640625 14.457099914550781 -40
   vertex -43.371429443359375 43.37139892578125 -40
   vertex -43.371429443359375 14.457099914550781 -40
  endloop
 endfacet
 facet normal -0 0 -1
  outer loop
   vertex -72.28570556640625 14.457099914550781 -40
   vertex -43.371429443359375 14.457099914550781 -40
   vertex -72.28570556640625 -14.457138061523438 -40
  endloop
 endfacet
 facet normal 0 -0 -1
  outer loop
   vertex -72.28570556640625 -14.457138061523438 -40
   vertex -43.371429443359375 14.457099914550781 -40
   vertex -43.371429443359375 -14.457138061523438 -40
  endloop
 endfacet
 facet normal -0 0 -1
  outer loop
   vertex -72.28570556640625 -14.457138061523438 -40
   vertex -43.371429443359375 -14.457138061523438 -40
   vertex -72.28570556640625 -43.371429443359375 -40
  endloop
 endfacet
 facet normal 0 -0 -1
  outer loop
   vertex -72.28570556640625 -43.371429443359375 -40
   vertex -43.371429443359375 -14.457138061523438 -40
   vertex -43.371429443359375 -43.371429443359375 -40
  endloop
 endfacet
 facet normal -0 0 -1
  outer loop
   vertex -72.28570556640625 -43.371429443359375 -40
   vertex -43.371429443359375 -43.371429443359375 -40
   vertex -72.28570556640625 -68.914031982421875 -40
  endloop
 endfacet
 facet normal 0 0 -1
  outer loop
   vertex -72.28570556640625 -68.914031982421875 -40
   vertex -43.371429443359375 -43.371429443359375 -40
   vertex -69.0806884765625 -72.28570556640625 -40
  endloop
 endfacet
 facet normal -0 0 -1
  outer loop
   vertex 69.080703735351562 72.28570556640625 -40
   vertex 72.28570556640625 68.91400146484375 -40
   vertex 43.37139892578125 43.37139892578125 -40
  endloop
 endfacet
 facet normal 0 -0 -1
  outer loop
   vertex 43.37139892578125 43.37139892578125 -40
   vertex 72.28570556640625 68.91400146484375 -40
   vertex 72.28570556640625 43.37139892578125 -40
  endloop
 endfacet
 facet normal -0 0 -1
  outer loop
   vertex 43.37139892578125 43.37139892578125 -40
   vertex 72.28570556640625 43.37139892578125 -40
   vertex 43.37139892578125 14.457099914550781 -40
  endloop
 endfacet
 facet normal 0 -0 -1
  outer loop
   vertex 43.37139892578125 14.457099914550781 -40
   vertex 72.28570556640625 43.37139892578125 -40
   vertex 72.28570556640625 14.457099914550781 -40
  endloop
 endfacet
 facet normal -0 0 -1
  outer loop
   vertex 43.37139892578125 14.457099914550781 -40
   vertex 72.28570556640625 14.457099914550781 -40
   vertex 43.37139892578125 -14.457138061523438 -40
  endloop
 endfacet
 facet normal 0 -0 -1
  outer loop
   vertex 43.37139892578125 -14.457138061523438 -40
   vertex 72.28570556640625 14.457099914550781 -40
   vertex 72.28570556640625 -14.457138061523438 -40
  endloop
 endfacet
 facet normal -0 0 -1
  outer loop
   vertex 43.37139892578125 -14.457138061523438 -40
   vertex 72.28570556640625 -14.457138061523438 -40
   vertex 43.37139892578125 -43.371429443359375 -40
  endloop
 endfacet
 facet normal 0 -0 -1
  outer loop
   vertex 43.37139892578125 -43.371429443359375 -40
   vertex 72.28570556640625 -14.457138061523438 -40
   vertex 72.28570556640625 -43.371429443359375 -40
  endloop
 endfacet
 facet normal -0 -0 -1
  outer loop
   vertex 43.37139892578125 -43.371429443359375 -40
   vertex 72.28570556640625 -43.371429443359375 -40
   vertex 72.28570556640625 -68.914031982421875 -40
  endloop
 endfacet
 facet normal 0 0 -1
  outer loop
   vertex 72.28570556640625 -68.914031982421875 -40
   vertex 72.28570556640625 -43.371429443359375 -40
   vertex 75.87579345703125 -65.137252807617188 -40
  endloop
 endfacet
 facet normal 0 -0 -1
  outer loop
   vertex -44.039421081542969 89.780502319335938 -40
   vertex -43.371429443359375 90.067092895507812 -40
   vertex -43.371429443359375 72.28570556640625 -40
  endloop
 endfacet
 facet normal 0 0 -1
  outer loop
   vertex -43.371429443359375 72.28570556640625 -40
   vertex -43.371429443359375 90.067092895507812 -40
   vertex -14.457138061523438 72.28570556640625 -40
  endloop
 endfacet
 facet normal -0 0 -1
  outer loop
   vertex -43.371429443359375 72.28570556640625 -40
   vertex -14.457138061523438 72.28570556640625 -40
   vertex -43.371429443359375 43.37139892578125 -40
  endloop
 endfacet
 facet normal 0 -0 -1
  outer loop
   vertex -43.371429443359375 43.37139892578125 -40
   vertex -14.457138061523438 72.28570556640625 -40
   vertex -14.457138061523438 43.37139892578125 -40
  endloop
 endfacet
 facet normal -0 0 -1
  outer loop
   vertex -43.371429443359375 43.37139892578125 -40
   vertex -14.457138061523438 43.37139892578125 -40
   vertex -43.371429443359375 14.457099914550781 -40
  endloop
 endfacet
 facet normal 0 -0 -1
  outer loop
   vertex -43.371429443359375 14.457099914550781 -40
   vertex -14.457138061523438 43.37139892578125 -40
   vertex -14.457138061523438 14.457099914550781 -40
  endloop
 endfacet
 facet normal -0 0 -1
  outer loop
   vertex -43.371429443359375 14.457099914550781 -40
   vertex -14.457138061523438 14.457099914550781 -40
   vertex -43.371429443359375 -14.457138061523438 -40
  endloop
 endfacet
 facet normal 0 -0 -1
  outer loop
   vertex -43.371429443359375 -14.457138061523438 -40
   vertex -14.457138061523438 14.457099914550781 -40
   vertex -14.457138061523438 -14.457138061523438 -40
  endloop
 endfacet
 facet normal -0 0 -1
  outer loop
   vertex -43.371429443359375 -14.457138061523438 -40
   vertex -14.457138061523438 -14.457138061523438 -40
   vertex -43.371429443359375 -43.371429443359375 -40
  endloop
 endfacet
 facet normal 0 -0 -1
  outer loop
   vertex -43.371429443359375 -43.371429443359375 -40
   vertex -14.457138061523438 -14.457138061523438 -40
   vertex -14.457138061523438 -43.371429443359375 -40
  endloop
 endfacet
 facet normal -0 0 -1
  outer loop
   vertex -43.371429443359375 -43.371429443359375 -40
   vertex -14.457138061523438 -43.371429443359375 -40
   vertex -43.371429443359375 -72.28570556640625 -40
  endloop
 endfacet
 facet normal 0 -0 -1
  outer loop
   vertex -43.371429443359375 -72.28570556640625 -40
   vertex -14.457138061523438 -43.371429443359375 -40
   vertex -14.457138061523438 -72.28570556640625 -40
  endloop
 endfacet
 facet normal -0 0 -1
  outer loop
   vertex -43.371429443359375 -72.28570556640625 -40
   vertex -14.457138061523438 -72.28570556640625 -40
   vertex -34.73052978515625 -93.775215148925781 -40
  endloop
 endfacet
 facet normal 0 0 -1
  outer loop
   vertex -34.73052978515625 -93.775215148925781 -40
   vertex -14.457138061523438 -72.28570556640625 -40
   vertex -25.06524658203125 -96.807716369628906 -40
  endloop
 endfacet
 facet normal 0 0 -1
  outer loop
   vertex -14.457138061523438 98.916595458984375 -40
   vertex -5.0649185180664062 99.871597290039062 -40
   vertex -14.457138061523438 72.28570556640625 -40
  endloop
 endfacet
 facet normal 0 -0 -1
  outer loop
   vertex -14.457138061523438 72.28570556640625 -40
   vertex -5.0649185180664062 99.871597290039062 -40
   vertex 14.457099914550781 72.28570556640625 -40
  endloop
 endfacet
 facet normal -0 0 -1
  outer loop
   vertex -14.457138061523438 72.28570556640625 -40
   vertex 14.457099914550781 72.28570556640625 -40
   vertex -14.457138061523438 43.37139892578125 -40
  endloop
 endfacet
 facet normal 0 -0 -1
  outer loop
   vertex -14.457138061523438 43.37139892578125 -40
   vertex 14.457099914550781 72.28570556640625 -40
   vertex 14.457099914550781 43.37139892578125 -40
  endloop
 endfacet
 facet normal -0 0 -1
  outer loop
   vertex -14.457138061523438 43.37139892578125 -40
   vertex 14.457099914550781 43.37139892578125 -40
   vertex -14.457138061523438 14.457099914550781 -40
  endloop
 endfacet
 facet normal 0 -0 -1
  outer loop
   vertex -14.457138061523438 14.457099914550781 -40
   vertex 14.457099914550781 43.37139892578125 -40
   vertex 14.457099914550781 14.457099914550781 -40
  endloop
 endfacet
 facet normal -0 0 -1
  outer loop
   vertex -14.457138061523438 14.457099914550781 -40
   vertex 14.457099914550781 14.457099914550781 -40
   vertex -14.457138061523438 -14.457138061523438 -40
  endloop
 endfacet
 facet normal 0 -0 -1
  outer loop
   vertex -14.457138061523438 -14.457138061523438 -40
   vertex 14.457099914550781 14.457099914550781 -40
   vertex 14.457099914550781 -14.457138061523438 -40
  endloop
 endfacet
 facet normal -0 0 -1
  outer loop
   vertex -14.457138061523438 -14.457138061523438 -40
   vertex 14.457099914550781 -14.457138061523438 -40
   vertex -14.457138061523438 -43.371429443359375 -40
  endloop
 endfacet
 facet normal 0 -0 -1
  outer loop
   vertex -14.457138061523438 -43.371429443359375 -40
   vertex 14.457099914550781 -14.457138061523438 -40
   vertex 14.457099914550781 -43.371429443359375 -40
  endloop
 endfacet
 facet normal -0 0 -1
  outer loop
   vertex -14.457138061523438 -43.371429443359375 -40
   vertex 14.457099914550781 -43.371429443359375 -40
   vertex -14.457138061523438 -72.28570556640625 -40
  endloop
 endfacet
 facet normal 0 -0 -1
  outer loop
   vertex -14.457138061523438 -72.28570556640625 -40
   vertex 14.457099914550781 -43.371429443359375 -40
   vertex 14.457099914550781 -72.28570556640625 -40
  endloop
 endfacet
 facet normal -0 0 -1
  outer loop
   vertex -14.457138061523438 -72.28570556640625 -40
   vertex 14.457099914550781 -72.28570556640625 -40
   vertex 5.0649032592773438 -99.871650695800781 -40
  endloop
 endfacet
 facet normal 0 -0 -1
  outer loop
   vertex 5.0649032592773438 -99.871650695800781 -40
   vertex 14.457099914550781 -72.28570556640625 -40
   vertex 14.457099914550781 -98.916557312011719 -40
  endloop
 endfacet
 facet normal -0 0 -1
  outer loop
   vertex 25.065299987792969 96.807693481445312 -40
   vertex 34.730499267578125 93.77520751953125 -40
   vertex 14.457099914550781 72.28570556640625 -40
  endloop
 endfacet
 facet normal 0 -0 -1
  outer loop
   vertex 14.457099914550781 72.28570556640625 -40
   vertex 34.730499267578125 93.77520751953125 -40
   vertex 43.37139892578125 72.28570556640625 -40
  endloop
 endfacet
 facet normal -0 0 -1
  outer loop
   vertex 14.457099914550781 72.28570556640625 -40
   vertex 43.37139892578125 72.28570556640625 -40
   vertex 14.457099914550781 43.37139892578125 -40
  endloop
 endfacet
 facet normal 0 -0 -1
  outer loop
   vertex 14.457099914550781 43.37139892578125 -40
   vertex 43.37139892578125 72.28570556640625 -40
   vertex 43.37139892578125 43.37139892578125 -40
  endloop
 endfacet
 facet normal -0 0 -1
  outer loop
   vertex 14.457099914550781 43.37139892578125 -40
   vertex 43.37139892578125 43.37139892578125 -40
   vertex 14.457099914550781 14.457099914550781 -40
  endloop
 endfacet
 facet normal 0 -0 -1
  outer loop
   vertex 14.457099914550781 14.457099914550781 -40
   vertex 43.37139892578125 43.37139892578125 -40
   vertex 43.37139892578125 14.457099914550781 -40
  endloop
 endfacet
 facet normal -0 0 -1
  outer loop
   vertex 14.457099914550781 14.457099914550781 -40
   vertex 43.37139892578125 14.457099914550781 -40
   vertex 14.457099914550781 -14.457138061523438 -40
  endloop
 endfacet
 facet normal 0 -0 -1
  outer loop
   vertex 14.457099914550781 -14.457138061523438 -40
   vertex 43.37139892578125 14.457099914550781 -40
   vertex 43.37139892578125 -14.457138061523438 -40
  endloop
 endfacet
 facet normal -0 0 -1
  outer loop
   vertex 14.457099914550781 -14.457138061523438 -40
   vertex 43.37139892578125 -14.457138061523438 -40
   vertex 14.457099914550781 -43.371429443359375 -40
  endloop
 endfacet
 facet normal 0 -0 -1
  outer loop
   vertex 14.457099914550781 -43.371429443359375 -40
   vertex 43.37139892578125 -14.457138061523438 -40
   vertex 43.37139892578125 -43.371429443359375 -40
  endloop
 endfacet
 facet normal -0 0 -1
  outer loop
   vertex 14.457099914550781 -43.371429443359375 -40
   vertex 43.37139892578125 -43.371429443359375 -40
   vertex 14.457099914550781 -72.28570556640625 -40
  endloop
 endfacet
 facet normal 0 -0 -1
  outer loop
   vertex 14.457099914550781 -72.28570556640625 -40
   vertex 43.37139892578125 -43.371429443359375 -40
   vertex 43.37139892578125 -72.28570556640625 -40
  endloop
 endfacet
 facet normal -0 0 -1
  outer loop
   vertex 14.457099914550781 -72.28570556640625 -40
   vertex 43.37139892578125 -72.28570556640625 -40
   vertex 34.730499267578125 -93.775215148925781 -40
  endloop
 endfacet
 facet normal 0 -0 -1
  outer loop
   vertex 34.730499267578125 -93.775215148925781 -40
   vertex 43.37139892578125 -72.28570556640625 -40
   vertex 43.37139892578125 -90.067108154296875 -40
  endloop
 endfacet
endsolid
